<mxfile host="Electron" modified="2023-11-14T16:45:15.997Z" agent="Mozilla/5.0 (Windows NT 10.0; Win64; x64) AppleWebKit/537.36 (KHTML, like Gecko) draw.io/22.0.3 Chrome/114.0.5735.289 Electron/25.8.4 Safari/537.36" etag="rJWqM2ppIzqNe_wBY_zC" version="22.0.3" type="device">
  <diagram name="Страница — 1" id="PFwNMbAUwVFmRPbhzIcL">
    <mxGraphModel dx="788" dy="968" grid="1" gridSize="10" guides="1" tooltips="1" connect="1" arrows="1" fold="1" page="1" pageScale="1" pageWidth="827" pageHeight="1169" math="0" shadow="0">
      <root>
        <mxCell id="0" />
        <mxCell id="1" parent="0" />
        <mxCell id="BY-3at06x09aHT966IcW-1" value="&lt;font face=&quot;Times New Roman&quot;&gt;&lt;font style=&quot;font-size: 14px;&quot;&gt;Social Network User&lt;/font&gt;&lt;br&gt;&lt;font style=&quot;font-size: 12px;&quot;&gt;[Person]&lt;br&gt;&lt;/font&gt;&lt;/font&gt;&lt;br&gt;&lt;font face=&quot;Verdana&quot; style=&quot;font-size: 10px;&quot;&gt;A user of the social network, with personal account&lt;/font&gt;" style="rounded=1;whiteSpace=wrap;html=1;fillColor=#000066;fontColor=#ffffff;strokeColor=#001DBC;" parent="1" vertex="1">
          <mxGeometry x="1151" y="70" width="130" height="90" as="geometry" />
        </mxCell>
        <mxCell id="BY-3at06x09aHT966IcW-2" value="" style="ellipse;whiteSpace=wrap;html=1;fillColor=#000066;fontColor=#ffffff;strokeColor=#001DBC;" parent="1" vertex="1">
          <mxGeometry x="1186" y="20" width="60" height="50" as="geometry" />
        </mxCell>
        <mxCell id="BY-3at06x09aHT966IcW-5" value="&lt;font face=&quot;Verdana&quot;&gt;&lt;span style=&quot;font-size: 8px;&quot;&gt;Uses&lt;/span&gt;&lt;/font&gt;" style="endArrow=open;endSize=12;dashed=1;html=1;rounded=0;exitX=0.5;exitY=1;exitDx=0;exitDy=0;" parent="1" source="BY-3at06x09aHT966IcW-1" edge="1">
          <mxGeometry width="160" relative="1" as="geometry">
            <mxPoint x="1151" y="190" as="sourcePoint" />
            <mxPoint x="1216" y="250" as="targetPoint" />
          </mxGeometry>
        </mxCell>
        <mxCell id="BY-3at06x09aHT966IcW-6" value="&lt;font style=&quot;&quot; face=&quot;Times New Roman&quot;&gt;&lt;span style=&quot;font-size: 14px;&quot;&gt;Social Network&lt;/span&gt;&lt;br&gt;&lt;font style=&quot;font-size: 12px;&quot;&gt;[Software System]&lt;/font&gt;&lt;/font&gt;&lt;br&gt;&lt;br&gt;&lt;font style=&quot;font-size: 9px;&quot;&gt;&lt;font style=&quot;font-size: 9px;&quot; face=&quot;Verdana&quot;&gt;The platform should provide users to interact by simplifying the process of creating an account, managing friendships and exchanging messages&lt;/font&gt;.&lt;/font&gt;" style="html=1;whiteSpace=wrap;fillColor=#0050ef;fontColor=#ffffff;strokeColor=#001DBC;" parent="1" vertex="1">
          <mxGeometry x="1141" y="250" width="150" height="130" as="geometry" />
        </mxCell>
        <mxCell id="BY-3at06x09aHT966IcW-10" value="&lt;font face=&quot;Times New Roman&quot; style=&quot;font-size: 18px;&quot;&gt;&lt;b&gt;Zoom in&lt;/b&gt;&lt;/font&gt;" style="html=1;verticalAlign=bottom;startArrow=oval;startFill=1;endArrow=block;startSize=8;curved=0;rounded=0;exitX=0.999;exitY=0.598;exitDx=0;exitDy=0;strokeWidth=9;strokeColor=#00CC00;exitPerimeter=0;" parent="1" source="BY-3at06x09aHT966IcW-58" target="BY-3at06x09aHT966IcW-32" edge="1">
          <mxGeometry width="60" relative="1" as="geometry">
            <mxPoint x="1300" y="680" as="sourcePoint" />
            <mxPoint x="1700" y="1090" as="targetPoint" />
          </mxGeometry>
        </mxCell>
        <mxCell id="BY-3at06x09aHT966IcW-11" value="System Context diagram for Social Network System" style="text;html=1;align=center;verticalAlign=middle;resizable=0;points=[];autosize=1;strokeColor=none;fillColor=none;fontStyle=1;fontFamily=Times New Roman;fontSize=16;" parent="1" vertex="1">
          <mxGeometry x="1020" y="420" width="380" height="30" as="geometry" />
        </mxCell>
        <mxCell id="BY-3at06x09aHT966IcW-12" value="Level 1&lt;br style=&quot;font-size: 26px;&quot;&gt;Context" style="text;html=1;align=center;verticalAlign=middle;resizable=0;points=[];autosize=1;strokeColor=none;fillColor=none;fontSize=26;fontStyle=1;fontFamily=Times New Roman;" parent="1" vertex="1">
          <mxGeometry x="1170" y="2090" width="110" height="80" as="geometry" />
        </mxCell>
        <mxCell id="BY-3at06x09aHT966IcW-18" value="&lt;font face=&quot;Times New Roman&quot;&gt;&lt;font style=&quot;font-size: 14px;&quot;&gt;Social Network User&lt;/font&gt;&lt;br&gt;[Person]&lt;br&gt;&lt;/font&gt;&lt;br&gt;&lt;font face=&quot;Verdana&quot; style=&quot;font-size: 10px;&quot;&gt;A user of the social network, with personal account.&lt;/font&gt;" style="rounded=1;whiteSpace=wrap;html=1;fillColor=#000066;fontColor=#ffffff;strokeColor=#001DBC;" parent="1" vertex="1">
          <mxGeometry x="1764" y="400" width="130" height="90" as="geometry" />
        </mxCell>
        <mxCell id="BY-3at06x09aHT966IcW-19" value="" style="ellipse;whiteSpace=wrap;html=1;fillColor=#000066;fontColor=#ffffff;strokeColor=#001DBC;" parent="1" vertex="1">
          <mxGeometry x="1799" y="350" width="60" height="50" as="geometry" />
        </mxCell>
        <mxCell id="BY-3at06x09aHT966IcW-22" value="&lt;font face=&quot;Verdana&quot;&gt;Visits socialnetwork.site.com/using&lt;br&gt;[HTTPS]&lt;br&gt;&lt;/font&gt;" style="endArrow=open;endSize=12;dashed=1;html=1;rounded=0;exitX=0.25;exitY=1;exitDx=0;exitDy=0;entryX=0.5;entryY=0;entryDx=0;entryDy=0;fontSize=10;" parent="1" source="BY-3at06x09aHT966IcW-18" target="BY-3at06x09aHT966IcW-23" edge="1">
          <mxGeometry x="-0.3333" width="160" relative="1" as="geometry">
            <mxPoint x="1580" y="460" as="sourcePoint" />
            <mxPoint x="1659" y="640" as="targetPoint" />
            <mxPoint as="offset" />
          </mxGeometry>
        </mxCell>
        <mxCell id="BY-3at06x09aHT966IcW-23" value="&lt;font face=&quot;Times New Roman&quot; style=&quot;&quot;&gt;&lt;font style=&quot;font-size: 14px;&quot;&gt;Web Application&lt;/font&gt;&lt;br&gt;&lt;font style=&quot;font-size: 12px;&quot;&gt;[Container: C# and ASP.NET MVC]&lt;br&gt;&lt;/font&gt;&lt;/font&gt;&lt;font style=&quot;font-size: 11px;&quot;&gt;&lt;br&gt;&lt;/font&gt;&lt;font size=&quot;1&quot; face=&quot;Verdana&quot;&gt;Delivers the static content and the Social Network Application.&amp;nbsp;&lt;/font&gt;" style="html=1;whiteSpace=wrap;fillColor=#0050ef;fontColor=#ffffff;strokeColor=#001DBC;" parent="1" vertex="1">
          <mxGeometry x="1584" y="630" width="150" height="100" as="geometry" />
        </mxCell>
        <mxCell id="BY-3at06x09aHT966IcW-24" value="&lt;font face=&quot;Verdana&quot; style=&quot;font-size: 10px;&quot;&gt;Delivers to user browser&lt;br&gt;[]&lt;br&gt;&lt;/font&gt;" style="endArrow=open;endSize=12;dashed=1;html=1;rounded=0;exitX=1;exitY=0.5;exitDx=0;exitDy=0;entryX=0;entryY=0.5;entryDx=0;entryDy=0;" parent="1" source="BY-3at06x09aHT966IcW-23" target="BY-3at06x09aHT966IcW-25" edge="1">
          <mxGeometry x="0.0036" width="160" relative="1" as="geometry">
            <mxPoint x="1470" y="570" as="sourcePoint" />
            <mxPoint x="1500" y="645" as="targetPoint" />
            <mxPoint as="offset" />
          </mxGeometry>
        </mxCell>
        <mxCell id="BY-3at06x09aHT966IcW-25" value="&lt;font face=&quot;Times New Roman&quot; style=&quot;&quot;&gt;&lt;font style=&quot;font-size: 14px;&quot;&gt;Single-Page Application&lt;/font&gt;&lt;br&gt;&lt;font style=&quot;font-size: 12px;&quot;&gt;[Container: JavaScript and Angular]&lt;br&gt;&lt;/font&gt;&lt;/font&gt;&lt;br&gt;&lt;font size=&quot;1&quot; face=&quot;Verdana&quot;&gt;Provides all of the Social Network functionality to users via their web browser.&lt;/font&gt;" style="html=1;whiteSpace=wrap;fillColor=#0050ef;fontColor=#ffffff;strokeColor=#001DBC;" parent="1" vertex="1">
          <mxGeometry x="1920" y="620" width="150" height="110" as="geometry" />
        </mxCell>
        <mxCell id="BY-3at06x09aHT966IcW-26" value="&lt;font face=&quot;Times New Roman&quot;&gt;&lt;font style=&quot;font-size: 14px;&quot;&gt;API Application&lt;/font&gt;&lt;br&gt;&lt;font style=&quot;font-size: 12px;&quot;&gt;[Container:&amp;nbsp;&lt;/font&gt;&lt;/font&gt;C# and ASP.NET MVC&lt;font face=&quot;Times New Roman&quot;&gt;&lt;font style=&quot;font-size: 12px;&quot;&gt;]&lt;br&gt;&lt;/font&gt;&lt;/font&gt;&lt;br&gt;&lt;font face=&quot;Verdana&quot;&gt;&lt;font size=&quot;1&quot; style=&quot;&quot;&gt;Provides social network functionality via a API&lt;/font&gt;&lt;font style=&quot;font-size: 11px;&quot;&gt;.&lt;/font&gt;&lt;/font&gt;" style="html=1;whiteSpace=wrap;fillColor=#0050ef;fontColor=#ffffff;strokeColor=#001DBC;" parent="1" vertex="1">
          <mxGeometry x="1915" y="815" width="150" height="90" as="geometry" />
        </mxCell>
        <mxCell id="BY-3at06x09aHT966IcW-27" value="&lt;font face=&quot;Verdana&quot; style=&quot;font-size: 10px;&quot;&gt;Makes API Calls to&lt;br&gt;[JSON/HTTPS]&lt;br&gt;&lt;/font&gt;" style="endArrow=open;endSize=12;dashed=1;html=1;rounded=0;exitX=0.5;exitY=1;exitDx=0;exitDy=0;" parent="1" source="BY-3at06x09aHT966IcW-25" target="BY-3at06x09aHT966IcW-26" edge="1">
          <mxGeometry width="160" relative="1" as="geometry">
            <mxPoint x="1410" y="790" as="sourcePoint" />
            <mxPoint x="1570" y="790" as="targetPoint" />
          </mxGeometry>
        </mxCell>
        <mxCell id="BY-3at06x09aHT966IcW-29" value="&lt;font face=&quot;Verdana&quot; style=&quot;font-size: 10px;&quot;&gt;Reads from and writes to&lt;br&gt;[EF CORE]&lt;br&gt;&lt;/font&gt;" style="endArrow=open;endSize=12;dashed=1;html=1;rounded=0;exitX=0;exitY=0.5;exitDx=0;exitDy=0;entryX=0.976;entryY=0.556;entryDx=0;entryDy=0;entryPerimeter=0;" parent="1" source="BY-3at06x09aHT966IcW-26" target="BY-3at06x09aHT966IcW-45" edge="1">
          <mxGeometry x="-0.0005" width="160" relative="1" as="geometry">
            <mxPoint x="1420" y="770" as="sourcePoint" />
            <mxPoint x="1734" y="860.0000000000002" as="targetPoint" />
            <mxPoint as="offset" />
          </mxGeometry>
        </mxCell>
        <mxCell id="BY-3at06x09aHT966IcW-30" value="Container Diagram for Social Network System" style="text;html=1;align=center;verticalAlign=middle;resizable=0;points=[];autosize=1;strokeColor=none;fillColor=none;fontStyle=1;fontFamily=Times New Roman;fontSize=16;" parent="1" vertex="1">
          <mxGeometry x="1530" y="960" width="340" height="30" as="geometry" />
        </mxCell>
        <mxCell id="BY-3at06x09aHT966IcW-31" value="&lt;span style=&quot;color: rgb(0, 0, 0); font-family: &amp;quot;Times New Roman&amp;quot;; font-size: 26px; font-style: normal; font-variant-ligatures: normal; font-variant-caps: normal; font-weight: 700; letter-spacing: normal; orphans: 2; text-indent: 0px; text-transform: none; widows: 2; word-spacing: 0px; -webkit-text-stroke-width: 0px; background-color: rgb(251, 251, 251); text-decoration-thickness: initial; text-decoration-style: initial; text-decoration-color: initial; float: none; display: inline !important;&quot;&gt;Level 2&lt;/span&gt;&lt;br style=&quot;border-color: var(--border-color); color: rgb(0, 0, 0); font-family: &amp;quot;Times New Roman&amp;quot;; font-size: 26px; font-style: normal; font-variant-ligatures: normal; font-variant-caps: normal; font-weight: 700; letter-spacing: normal; orphans: 2; text-indent: 0px; text-transform: none; widows: 2; word-spacing: 0px; -webkit-text-stroke-width: 0px; background-color: rgb(251, 251, 251); text-decoration-thickness: initial; text-decoration-style: initial; text-decoration-color: initial;&quot;&gt;&lt;span style=&quot;color: rgb(0, 0, 0); font-family: &amp;quot;Times New Roman&amp;quot;; font-size: 26px; font-style: normal; font-variant-ligatures: normal; font-variant-caps: normal; font-weight: 700; letter-spacing: normal; orphans: 2; text-indent: 0px; text-transform: none; widows: 2; word-spacing: 0px; -webkit-text-stroke-width: 0px; background-color: rgb(251, 251, 251); text-decoration-thickness: initial; text-decoration-style: initial; text-decoration-color: initial; float: none; display: inline !important;&quot;&gt;Container&lt;/span&gt;" style="text;whiteSpace=wrap;html=1;align=center;" parent="1" vertex="1">
          <mxGeometry x="1769" y="2085" width="120" height="90" as="geometry" />
        </mxCell>
        <mxCell id="BY-3at06x09aHT966IcW-32" value="" style="shape=umlFrame;whiteSpace=wrap;html=1;pointerEvents=0;strokeColor=#00CC00;strokeWidth=10;fillColor=default;width=10;height=15;" parent="1" vertex="1">
          <mxGeometry x="1560" y="610" width="520" height="340" as="geometry" />
        </mxCell>
        <mxCell id="BY-3at06x09aHT966IcW-33" value="" style="shape=umlFrame;whiteSpace=wrap;html=1;pointerEvents=0;strokeColor=#FFFF00;strokeWidth=10;fillColor=default;width=10;height=15;" parent="1" vertex="1">
          <mxGeometry x="1910" y="810" width="160" height="100" as="geometry" />
        </mxCell>
        <mxCell id="BY-3at06x09aHT966IcW-35" value="&lt;font face=&quot;Times New Roman&quot; style=&quot;font-size: 18px;&quot;&gt;&lt;b&gt;Zoom in&lt;/b&gt;&lt;/font&gt;" style="html=1;verticalAlign=bottom;startArrow=oval;startFill=1;endArrow=block;startSize=8;curved=0;rounded=0;exitX=1;exitY=0.5;exitDx=0;exitDy=0;strokeWidth=9;strokeColor=#FFFF00;" parent="1" source="BY-3at06x09aHT966IcW-26" target="BY-3at06x09aHT966IcW-52" edge="1">
          <mxGeometry width="60" relative="1" as="geometry">
            <mxPoint x="2000" y="1230" as="sourcePoint" />
            <mxPoint x="2400" y="1640" as="targetPoint" />
          </mxGeometry>
        </mxCell>
        <mxCell id="BY-3at06x09aHT966IcW-36" value="&lt;font face=&quot;Times New Roman&quot; style=&quot;&quot;&gt;&lt;font style=&quot;font-size: 14px;&quot;&gt;Web Application&lt;/font&gt;&lt;br&gt;&lt;font style=&quot;font-size: 12px;&quot;&gt;[Container: C# and ASP.NET MVC]&lt;br&gt;&lt;/font&gt;&lt;/font&gt;&lt;font style=&quot;font-size: 11px;&quot;&gt;&lt;br&gt;&lt;/font&gt;&lt;font size=&quot;1&quot; face=&quot;Verdana&quot;&gt;Delivers the static content and the Social Network Application.&amp;nbsp;&lt;/font&gt;" style="html=1;whiteSpace=wrap;fillColor=#0050ef;fontColor=#ffffff;strokeColor=#001DBC;" parent="1" vertex="1">
          <mxGeometry x="2475" y="1040" width="150" height="100" as="geometry" />
        </mxCell>
        <mxCell id="BY-3at06x09aHT966IcW-37" value="&lt;font face=&quot;Verdana&quot;&gt;Makes API calls to&lt;/font&gt;" style="endArrow=open;endSize=12;dashed=1;html=1;rounded=0;exitX=0;exitY=1;exitDx=0;exitDy=0;entryX=0.5;entryY=0;entryDx=0;entryDy=0;" parent="1" source="BY-3at06x09aHT966IcW-36" target="BY-3at06x09aHT966IcW-38" edge="1">
          <mxGeometry x="0.0019" width="160" relative="1" as="geometry">
            <mxPoint x="2095" y="990" as="sourcePoint" />
            <mxPoint x="2325" y="1230" as="targetPoint" />
            <mxPoint as="offset" />
          </mxGeometry>
        </mxCell>
        <mxCell id="BY-3at06x09aHT966IcW-38" value="&lt;font style=&quot;&quot;&gt;UserController&lt;font face=&quot;Times New Roman&quot;&gt;&lt;br&gt;&lt;font style=&quot;font-size: 12px;&quot;&gt;[Container: ASP.NET MVC]&lt;/font&gt;&lt;br&gt;&lt;/font&gt;&lt;br&gt;&lt;/font&gt;&lt;font size=&quot;1&quot; face=&quot;Verdana&quot;&gt;Allows users to make sign in and login&amp;nbsp;in Social Network.&amp;nbsp;&lt;/font&gt;" style="html=1;whiteSpace=wrap;fillColor=#0050ef;fontColor=#ffffff;strokeColor=#001DBC;" parent="1" vertex="1">
          <mxGeometry x="2255" y="1240" width="150" height="100" as="geometry" />
        </mxCell>
        <mxCell id="BY-3at06x09aHT966IcW-39" value="&lt;font style=&quot;&quot;&gt;&lt;font face=&quot;Times New Roman&quot;&gt;&lt;span style=&quot;font-size: 14px;&quot;&gt;SecurityController&lt;/span&gt;&lt;br&gt;&lt;font style=&quot;font-size: 12px;&quot;&gt;[Container: Oauth]&lt;/font&gt;&lt;br&gt;&lt;/font&gt;&lt;br&gt;&lt;/font&gt;&lt;font size=&quot;1&quot; face=&quot;Verdana&quot;&gt;Provides users to login securely&lt;/font&gt;" style="html=1;whiteSpace=wrap;fillColor=#0050ef;fontColor=#ffffff;strokeColor=#001DBC;" parent="1" vertex="1">
          <mxGeometry x="2255" y="1410" width="150" height="90" as="geometry" />
        </mxCell>
        <mxCell id="BY-3at06x09aHT966IcW-40" value="&lt;font face=&quot;Verdana&quot;&gt;Reads and writes to DB&lt;br&gt;[EF]&lt;br&gt;&lt;/font&gt;" style="endArrow=open;endSize=12;dashed=1;html=1;rounded=0;exitX=0.5;exitY=1;exitDx=0;exitDy=0;entryX=0.5;entryY=0;entryDx=0;entryDy=0;" parent="1" source="BY-3at06x09aHT966IcW-38" target="BY-3at06x09aHT966IcW-39" edge="1">
          <mxGeometry width="160" relative="1" as="geometry">
            <mxPoint x="2330" y="1320" as="sourcePoint" />
            <mxPoint x="2295" y="1400" as="targetPoint" />
          </mxGeometry>
        </mxCell>
        <mxCell id="BY-3at06x09aHT966IcW-41" value="&lt;font style=&quot;&quot;&gt;FriendshipController&lt;font style=&quot;&quot; face=&quot;Times New Roman&quot;&gt;&lt;br&gt;&lt;/font&gt;&lt;span style=&quot;font-size: 12px; font-family: &amp;quot;Times New Roman&amp;quot;;&quot;&gt;[Container: ASP.NET MVC]&lt;/span&gt;&lt;font style=&quot;font-size: 12px;&quot; face=&quot;Times New Roman&quot;&gt;&lt;span style=&quot;&quot;&gt;&lt;br&gt;&lt;/span&gt;&lt;/font&gt;&lt;br&gt;&lt;/font&gt;&lt;font size=&quot;1&quot; face=&quot;Verdana&quot;&gt;Allows users to add friends.&lt;/font&gt;" style="html=1;whiteSpace=wrap;fillColor=#0050ef;fontColor=#ffffff;strokeColor=#001DBC;" parent="1" vertex="1">
          <mxGeometry x="2475" y="1245" width="150" height="100" as="geometry" />
        </mxCell>
        <mxCell id="BY-3at06x09aHT966IcW-42" value="&lt;font face=&quot;Verdana&quot;&gt;Makes API calls to&lt;br&gt;[JSON/HTTPS]&lt;br&gt;&lt;/font&gt;" style="endArrow=open;endSize=12;dashed=1;html=1;rounded=0;exitX=0.5;exitY=1;exitDx=0;exitDy=0;entryX=0.5;entryY=0;entryDx=0;entryDy=0;" parent="1" source="BY-3at06x09aHT966IcW-36" target="BY-3at06x09aHT966IcW-41" edge="1">
          <mxGeometry x="0.5455" width="160" relative="1" as="geometry">
            <mxPoint x="2375" y="1170" as="sourcePoint" />
            <mxPoint x="2340" y="1250" as="targetPoint" />
            <mxPoint y="-1" as="offset" />
          </mxGeometry>
        </mxCell>
        <mxCell id="BY-3at06x09aHT966IcW-43" value="&lt;font face=&quot;Verdana&quot;&gt;Uses&lt;/font&gt;" style="endArrow=open;endSize=12;dashed=1;html=1;rounded=0;exitX=0.5;exitY=1;exitDx=0;exitDy=0;" parent="1" source="BY-3at06x09aHT966IcW-41" target="BY-3at06x09aHT966IcW-46" edge="1">
          <mxGeometry width="160" relative="1" as="geometry">
            <mxPoint x="2535" y="1350" as="sourcePoint" />
            <mxPoint x="2535" y="1444" as="targetPoint" />
          </mxGeometry>
        </mxCell>
        <mxCell id="BY-3at06x09aHT966IcW-45" value="&lt;font style=&quot;border-color: var(--border-color); color: rgb(255, 255, 255);&quot; face=&quot;Times New Roman&quot;&gt;&lt;font style=&quot;border-color: var(--border-color); font-size: 14px;&quot;&gt;Database&lt;/font&gt;&lt;br style=&quot;border-color: var(--border-color);&quot;&gt;[Container: Relational Database Schema]&lt;br&gt;&lt;/font&gt;&lt;br style=&quot;border-color: var(--border-color); color: rgb(255, 255, 255);&quot;&gt;&lt;font style=&quot;border-color: var(--border-color); color: rgb(255, 255, 255); font-size: 10px;&quot; face=&quot;Verdana&quot;&gt;Stores user registration information, interactions lists, chating history, etc&amp;nbsp;&lt;/font&gt;" style="shape=datastore;whiteSpace=wrap;html=1;fillColor=#0000CC;" parent="1" vertex="1">
          <mxGeometry x="1576" y="770" width="166" height="160" as="geometry" />
        </mxCell>
        <mxCell id="BY-3at06x09aHT966IcW-46" value="&lt;font style=&quot;border-color: var(--border-color); color: rgb(255, 255, 255);&quot; face=&quot;Times New Roman&quot;&gt;&lt;font style=&quot;border-color: var(--border-color); font-size: 14px;&quot;&gt;Database&lt;/font&gt;&lt;br style=&quot;border-color: var(--border-color);&quot;&gt;[Container: SQL Server]&lt;/font&gt;&lt;br style=&quot;border-color: var(--border-color); color: rgb(255, 255, 255);&quot;&gt;&lt;font style=&quot;border-color: var(--border-color); color: rgb(255, 255, 255); font-size: 10px;&quot; face=&quot;Verdana&quot;&gt;Stores user registration information, interactions, chating history, etc&amp;nbsp;&lt;/font&gt;" style="shape=datastore;whiteSpace=wrap;html=1;fillColor=#0000CC;" parent="1" vertex="1">
          <mxGeometry x="2560" y="1560" width="166" height="155" as="geometry" />
        </mxCell>
        <mxCell id="BY-3at06x09aHT966IcW-48" value="&lt;font face=&quot;Verdana&quot; style=&quot;font-size: 10px;&quot;&gt;Reads from and writes to&lt;/font&gt;" style="endArrow=open;endSize=12;dashed=1;html=1;rounded=0;exitX=0.5;exitY=1;exitDx=0;exitDy=0;entryX=0.006;entryY=0.067;entryDx=0;entryDy=0;entryPerimeter=0;" parent="1" source="BY-3at06x09aHT966IcW-39" target="BY-3at06x09aHT966IcW-46" edge="1">
          <mxGeometry x="-0.0005" width="160" relative="1" as="geometry">
            <mxPoint x="2276" y="1630" as="sourcePoint" />
            <mxPoint x="2086" y="1638" as="targetPoint" />
            <mxPoint as="offset" />
          </mxGeometry>
        </mxCell>
        <mxCell id="BY-3at06x09aHT966IcW-49" value="&lt;font style=&quot;&quot;&gt;Message&lt;font face=&quot;Times New Roman&quot;&gt;&lt;font style=&quot;font-size: 14px;&quot;&gt;Controller&lt;/font&gt;&lt;br&gt;&lt;/font&gt;&lt;span style=&quot;font-family: &amp;quot;Times New Roman&amp;quot;;&quot;&gt;&lt;font style=&quot;font-size: 12px;&quot;&gt;[Container: ASP.NET MVC]&lt;/font&gt;&lt;/span&gt;&lt;font face=&quot;Times New Roman&quot;&gt;&lt;span style=&quot;font-size: 14px;&quot;&gt;&lt;br&gt;&lt;/span&gt;&lt;/font&gt;&lt;br&gt;&lt;/font&gt;&lt;font size=&quot;1&quot; face=&quot;Verdana&quot;&gt;Allows users to send and receive messages.&lt;/font&gt;" style="html=1;whiteSpace=wrap;fillColor=#0050ef;fontColor=#ffffff;strokeColor=#001DBC;" parent="1" vertex="1">
          <mxGeometry x="2710" y="1250" width="150" height="110" as="geometry" />
        </mxCell>
        <mxCell id="BY-3at06x09aHT966IcW-50" value="Makes API calls to&lt;br style=&quot;border-color: var(--border-color); font-family: Verdana;&quot;&gt;&lt;span style=&quot;font-family: Verdana;&quot;&gt;[JSON/HTTPS]&lt;/span&gt;" style="endArrow=open;endSize=12;dashed=1;html=1;rounded=0;exitX=1;exitY=1;exitDx=0;exitDy=0;entryX=0.5;entryY=0;entryDx=0;entryDy=0;" parent="1" source="BY-3at06x09aHT966IcW-36" target="BY-3at06x09aHT966IcW-49" edge="1">
          <mxGeometry width="160" relative="1" as="geometry">
            <mxPoint x="2635" y="1150" as="sourcePoint" />
            <mxPoint x="2560" y="1250" as="targetPoint" />
          </mxGeometry>
        </mxCell>
        <mxCell id="BY-3at06x09aHT966IcW-51" value="&lt;font face=&quot;Verdana&quot;&gt;Uses&lt;/font&gt;" style="endArrow=open;endSize=12;dashed=1;html=1;rounded=0;exitX=0.5;exitY=1;exitDx=0;exitDy=0;entryX=0.85;entryY=0.05;entryDx=0;entryDy=0;entryPerimeter=0;" parent="1" source="BY-3at06x09aHT966IcW-49" target="BY-3at06x09aHT966IcW-46" edge="1">
          <mxGeometry width="160" relative="1" as="geometry">
            <mxPoint x="2749" y="1340" as="sourcePoint" />
            <mxPoint x="2751" y="1434" as="targetPoint" />
          </mxGeometry>
        </mxCell>
        <mxCell id="BY-3at06x09aHT966IcW-52" value="" style="shape=umlFrame;whiteSpace=wrap;html=1;pointerEvents=0;strokeColor=#FFFF00;strokeWidth=10;fillColor=default;width=10;height=15;" parent="1" vertex="1">
          <mxGeometry x="2205" y="1160" width="665" height="350" as="geometry" />
        </mxCell>
        <mxCell id="BY-3at06x09aHT966IcW-53" value="&lt;span style=&quot;border-color: var(--border-color); color: rgb(0, 0, 0); font-style: normal; font-variant-ligatures: normal; font-variant-caps: normal; letter-spacing: normal; orphans: 2; text-indent: 0px; text-transform: none; widows: 2; word-spacing: 0px; -webkit-text-stroke-width: 0px; text-decoration-thickness: initial; text-decoration-style: initial; text-decoration-color: initial; font-family: &amp;quot;Times New Roman&amp;quot;; font-size: 26px; font-weight: 700; background-color: rgb(251, 251, 251); float: none; display: inline !important;&quot;&gt;Level 3&lt;/span&gt;&lt;br style=&quot;border-color: var(--border-color); color: rgb(0, 0, 0); font-style: normal; font-variant-ligatures: normal; font-variant-caps: normal; letter-spacing: normal; orphans: 2; text-indent: 0px; text-transform: none; widows: 2; word-spacing: 0px; -webkit-text-stroke-width: 0px; text-decoration-thickness: initial; text-decoration-style: initial; text-decoration-color: initial; font-family: &amp;quot;Times New Roman&amp;quot;; font-size: 26px; font-weight: 700; background-color: rgb(251, 251, 251);&quot;&gt;&lt;span style=&quot;border-color: var(--border-color); color: rgb(0, 0, 0); font-style: normal; font-variant-ligatures: normal; font-variant-caps: normal; letter-spacing: normal; orphans: 2; text-indent: 0px; text-transform: none; widows: 2; word-spacing: 0px; -webkit-text-stroke-width: 0px; text-decoration-thickness: initial; text-decoration-style: initial; text-decoration-color: initial; font-family: &amp;quot;Times New Roman&amp;quot;; font-size: 26px; font-weight: 700; background-color: rgb(251, 251, 251); float: none; display: inline !important;&quot;&gt;Components&lt;/span&gt;" style="text;whiteSpace=wrap;html=1;align=center;" parent="1" vertex="1">
          <mxGeometry x="2486" y="2080" width="150" height="90" as="geometry" />
        </mxCell>
        <mxCell id="BY-3at06x09aHT966IcW-56" value="" style="shape=umlFrame;whiteSpace=wrap;html=1;pointerEvents=0;strokeColor=#FF0000;strokeWidth=10;fillColor=default;width=10;height=15;" parent="1" vertex="1">
          <mxGeometry x="3190" y="1222.5" width="2240" height="830" as="geometry" />
        </mxCell>
        <mxCell id="BY-3at06x09aHT966IcW-57" value="&lt;span style=&quot;border-color: var(--border-color); color: rgb(0, 0, 0); font-style: normal; font-variant-ligatures: normal; font-variant-caps: normal; letter-spacing: normal; orphans: 2; text-indent: 0px; text-transform: none; widows: 2; word-spacing: 0px; -webkit-text-stroke-width: 0px; text-decoration-thickness: initial; text-decoration-style: initial; text-decoration-color: initial; font-family: &amp;quot;Times New Roman&amp;quot;; font-size: 26px; font-weight: 700; background-color: rgb(251, 251, 251); float: none; display: inline !important;&quot;&gt;Level 4&lt;/span&gt;&lt;br style=&quot;border-color: var(--border-color); color: rgb(0, 0, 0); font-style: normal; font-variant-ligatures: normal; font-variant-caps: normal; letter-spacing: normal; orphans: 2; text-indent: 0px; text-transform: none; widows: 2; word-spacing: 0px; -webkit-text-stroke-width: 0px; text-decoration-thickness: initial; text-decoration-style: initial; text-decoration-color: initial; font-family: &amp;quot;Times New Roman&amp;quot;; font-size: 26px; font-weight: 700; background-color: rgb(251, 251, 251);&quot;&gt;&lt;span style=&quot;border-color: var(--border-color); color: rgb(0, 0, 0); font-style: normal; font-variant-ligatures: normal; font-variant-caps: normal; letter-spacing: normal; orphans: 2; text-indent: 0px; text-transform: none; widows: 2; word-spacing: 0px; -webkit-text-stroke-width: 0px; text-decoration-thickness: initial; text-decoration-style: initial; text-decoration-color: initial; font-family: &amp;quot;Times New Roman&amp;quot;; font-size: 26px; font-weight: 700; background-color: rgb(251, 251, 251); float: none; display: inline !important;&quot;&gt;Code&lt;/span&gt;" style="text;whiteSpace=wrap;html=1;align=center;" parent="1" vertex="1">
          <mxGeometry x="4065" y="2080" width="150" height="90" as="geometry" />
        </mxCell>
        <mxCell id="BY-3at06x09aHT966IcW-58" value="" style="shape=umlFrame;whiteSpace=wrap;html=1;pointerEvents=0;strokeColor=#00CC00;strokeWidth=10;fillColor=default;width=10;height=15;" parent="1" vertex="1">
          <mxGeometry x="1131" y="255" width="170" height="130" as="geometry" />
        </mxCell>
        <mxCell id="BY-3at06x09aHT966IcW-59" value="Component Diagram for Social Network System - API Application" style="text;html=1;align=center;verticalAlign=middle;resizable=0;points=[];autosize=1;strokeColor=none;fillColor=none;fontStyle=1;fontSize=16;" parent="1" vertex="1">
          <mxGeometry x="2140" y="1724" width="520" height="30" as="geometry" />
        </mxCell>
        <mxCell id="XlqtxUfu8w-gP25Wh8O6-4" value="&lt;font face=&quot;Verdana&quot;&gt;Views friendships, &lt;br&gt;makes some operations, using&lt;br&gt;[]&lt;br&gt;&lt;/font&gt;" style="endArrow=open;endSize=12;dashed=1;html=1;rounded=0;exitX=0.75;exitY=1;exitDx=0;exitDy=0;entryX=0.569;entryY=-0.005;entryDx=0;entryDy=0;fontSize=10;entryPerimeter=0;" edge="1" parent="1" source="BY-3at06x09aHT966IcW-18" target="BY-3at06x09aHT966IcW-25">
          <mxGeometry x="0.0203" y="33" width="160" relative="1" as="geometry">
            <mxPoint x="1815" y="500" as="sourcePoint" />
            <mxPoint x="1669" y="640" as="targetPoint" />
            <mxPoint y="1" as="offset" />
          </mxGeometry>
        </mxCell>
        <mxCell id="XlqtxUfu8w-gP25Wh8O6-7" value="Uses to validate data&lt;br&gt;[JWT]" style="edgeStyle=orthogonalEdgeStyle;rounded=0;orthogonalLoop=1;jettySize=auto;html=1;exitX=0;exitY=0.5;exitDx=0;exitDy=0;entryX=0.004;entryY=0.612;entryDx=0;entryDy=0;entryPerimeter=0;dashed=1;dashPattern=8 8;" edge="1" parent="1" source="BY-3at06x09aHT966IcW-38" target="BY-3at06x09aHT966IcW-46">
          <mxGeometry relative="1" as="geometry" />
        </mxCell>
        <mxCell id="XlqtxUfu8w-gP25Wh8O6-8" value="UserController" style="rounded=0;whiteSpace=wrap;html=1;" vertex="1" parent="1">
          <mxGeometry x="4100" y="1392.5" width="120" height="60" as="geometry" />
        </mxCell>
        <mxCell id="XlqtxUfu8w-gP25Wh8O6-9" value="SecurityController" style="rounded=0;whiteSpace=wrap;html=1;" vertex="1" parent="1">
          <mxGeometry x="4440" y="1402.5" width="120" height="60" as="geometry" />
        </mxCell>
        <mxCell id="XlqtxUfu8w-gP25Wh8O6-10" value="FriendShipController" style="rounded=0;whiteSpace=wrap;html=1;" vertex="1" parent="1">
          <mxGeometry x="4695" y="1402.5" width="120" height="60" as="geometry" />
        </mxCell>
        <mxCell id="XlqtxUfu8w-gP25Wh8O6-11" value="MessageController" style="rounded=0;whiteSpace=wrap;html=1;" vertex="1" parent="1">
          <mxGeometry x="4990" y="1402.5" width="120" height="60" as="geometry" />
        </mxCell>
        <mxCell id="XlqtxUfu8w-gP25Wh8O6-12" value="Controller layer" style="shape=umlFrame;whiteSpace=wrap;html=1;pointerEvents=0;width=80;height=30;" vertex="1" parent="1">
          <mxGeometry x="4000" y="1382.5" width="1190" height="160" as="geometry" />
        </mxCell>
        <mxCell id="XlqtxUfu8w-gP25Wh8O6-13" value="" style="endArrow=diamondThin;endFill=1;endSize=24;html=1;rounded=0;entryX=0.5;entryY=1;entryDx=0;entryDy=0;exitX=0.5;exitY=0;exitDx=0;exitDy=0;" edge="1" parent="1" source="XlqtxUfu8w-gP25Wh8O6-14" target="XlqtxUfu8w-gP25Wh8O6-8">
          <mxGeometry width="160" relative="1" as="geometry">
            <mxPoint x="3988" y="1482.5" as="sourcePoint" />
            <mxPoint x="4198" y="1497.3672566371683" as="targetPoint" />
          </mxGeometry>
        </mxCell>
        <mxCell id="XlqtxUfu8w-gP25Wh8O6-14" value="&amp;lt;&amp;lt;interface&amp;gt;&amp;gt;&lt;br&gt;IUserService" style="rounded=0;whiteSpace=wrap;html=1;" vertex="1" parent="1">
          <mxGeometry x="4100" y="1586.5" width="120" height="60" as="geometry" />
        </mxCell>
        <mxCell id="XlqtxUfu8w-gP25Wh8O6-26" style="edgeStyle=orthogonalEdgeStyle;rounded=0;orthogonalLoop=1;jettySize=auto;html=1;exitX=0.5;exitY=0;exitDx=0;exitDy=0;entryX=0.25;entryY=1;entryDx=0;entryDy=0;" edge="1" parent="1" source="XlqtxUfu8w-gP25Wh8O6-15" target="XlqtxUfu8w-gP25Wh8O6-14">
          <mxGeometry relative="1" as="geometry" />
        </mxCell>
        <mxCell id="XlqtxUfu8w-gP25Wh8O6-15" value="LoginService" style="rounded=0;whiteSpace=wrap;html=1;" vertex="1" parent="1">
          <mxGeometry x="4010" y="1702.5" width="120" height="40" as="geometry" />
        </mxCell>
        <mxCell id="XlqtxUfu8w-gP25Wh8O6-18" style="edgeStyle=orthogonalEdgeStyle;rounded=0;orthogonalLoop=1;jettySize=auto;html=1;exitX=0;exitY=0.5;exitDx=0;exitDy=0;entryX=0;entryY=0.75;entryDx=0;entryDy=0;" edge="1" parent="1" source="XlqtxUfu8w-gP25Wh8O6-16" target="XlqtxUfu8w-gP25Wh8O6-15">
          <mxGeometry relative="1" as="geometry" />
        </mxCell>
        <mxCell id="XlqtxUfu8w-gP25Wh8O6-16" value="Login" style="rounded=0;whiteSpace=wrap;html=1;" vertex="1" parent="1">
          <mxGeometry x="4040" y="1782.5" width="90" height="30" as="geometry" />
        </mxCell>
        <mxCell id="XlqtxUfu8w-gP25Wh8O6-19" style="edgeStyle=orthogonalEdgeStyle;rounded=0;orthogonalLoop=1;jettySize=auto;html=1;exitX=0;exitY=0.5;exitDx=0;exitDy=0;entryX=0;entryY=0.5;entryDx=0;entryDy=0;" edge="1" parent="1" source="XlqtxUfu8w-gP25Wh8O6-17" target="XlqtxUfu8w-gP25Wh8O6-15">
          <mxGeometry relative="1" as="geometry">
            <Array as="points">
              <mxPoint x="4040" y="1862.5" />
              <mxPoint x="3970" y="1862.5" />
              <mxPoint x="3970" y="1722.5" />
            </Array>
          </mxGeometry>
        </mxCell>
        <mxCell id="XlqtxUfu8w-gP25Wh8O6-17" value="Logout" style="rounded=0;whiteSpace=wrap;html=1;" vertex="1" parent="1">
          <mxGeometry x="4040" y="1832.5" width="90" height="30" as="geometry" />
        </mxCell>
        <mxCell id="XlqtxUfu8w-gP25Wh8O6-27" style="edgeStyle=orthogonalEdgeStyle;rounded=0;orthogonalLoop=1;jettySize=auto;html=1;exitX=0.5;exitY=0;exitDx=0;exitDy=0;entryX=0.75;entryY=1;entryDx=0;entryDy=0;" edge="1" parent="1" source="XlqtxUfu8w-gP25Wh8O6-21" target="XlqtxUfu8w-gP25Wh8O6-14">
          <mxGeometry relative="1" as="geometry" />
        </mxCell>
        <mxCell id="XlqtxUfu8w-gP25Wh8O6-21" value="RegisterService" style="rounded=0;whiteSpace=wrap;html=1;" vertex="1" parent="1">
          <mxGeometry x="4200" y="1702.5" width="120" height="40" as="geometry" />
        </mxCell>
        <mxCell id="XlqtxUfu8w-gP25Wh8O6-25" style="edgeStyle=orthogonalEdgeStyle;rounded=0;orthogonalLoop=1;jettySize=auto;html=1;exitX=0;exitY=0.5;exitDx=0;exitDy=0;entryX=0;entryY=0.75;entryDx=0;entryDy=0;" edge="1" parent="1" source="XlqtxUfu8w-gP25Wh8O6-22" target="XlqtxUfu8w-gP25Wh8O6-21">
          <mxGeometry relative="1" as="geometry" />
        </mxCell>
        <mxCell id="XlqtxUfu8w-gP25Wh8O6-22" value="CreateAccount" style="rounded=0;whiteSpace=wrap;html=1;" vertex="1" parent="1">
          <mxGeometry x="4215" y="1782.5" width="90" height="30" as="geometry" />
        </mxCell>
        <mxCell id="XlqtxUfu8w-gP25Wh8O6-24" style="edgeStyle=orthogonalEdgeStyle;rounded=0;orthogonalLoop=1;jettySize=auto;html=1;exitX=0;exitY=0.5;exitDx=0;exitDy=0;entryX=0;entryY=0.5;entryDx=0;entryDy=0;" edge="1" parent="1" source="XlqtxUfu8w-gP25Wh8O6-23" target="XlqtxUfu8w-gP25Wh8O6-21">
          <mxGeometry relative="1" as="geometry">
            <Array as="points">
              <mxPoint x="4170" y="1847.5" />
              <mxPoint x="4170" y="1722.5" />
            </Array>
          </mxGeometry>
        </mxCell>
        <mxCell id="XlqtxUfu8w-gP25Wh8O6-23" value="DeleteAccount" style="rounded=0;whiteSpace=wrap;html=1;" vertex="1" parent="1">
          <mxGeometry x="4215" y="1832.5" width="90" height="30" as="geometry" />
        </mxCell>
        <mxCell id="XlqtxUfu8w-gP25Wh8O6-29" value="&amp;lt;&amp;lt;interface&amp;gt;&amp;gt;&lt;br&gt;IAuthService" style="rounded=0;whiteSpace=wrap;html=1;" vertex="1" parent="1">
          <mxGeometry x="4440" y="1586.5" width="120" height="60" as="geometry" />
        </mxCell>
        <mxCell id="XlqtxUfu8w-gP25Wh8O6-36" style="edgeStyle=orthogonalEdgeStyle;rounded=0;orthogonalLoop=1;jettySize=auto;html=1;exitX=0.5;exitY=0;exitDx=0;exitDy=0;entryX=0.5;entryY=1;entryDx=0;entryDy=0;" edge="1" parent="1" source="XlqtxUfu8w-gP25Wh8O6-30" target="XlqtxUfu8w-gP25Wh8O6-29">
          <mxGeometry relative="1" as="geometry" />
        </mxCell>
        <mxCell id="XlqtxUfu8w-gP25Wh8O6-30" value="AuthService" style="rounded=0;whiteSpace=wrap;html=1;" vertex="1" parent="1">
          <mxGeometry x="4440" y="1702.5" width="120" height="40" as="geometry" />
        </mxCell>
        <mxCell id="XlqtxUfu8w-gP25Wh8O6-34" style="edgeStyle=orthogonalEdgeStyle;rounded=0;orthogonalLoop=1;jettySize=auto;html=1;exitX=0;exitY=0.5;exitDx=0;exitDy=0;entryX=0;entryY=0.75;entryDx=0;entryDy=0;" edge="1" parent="1" source="XlqtxUfu8w-gP25Wh8O6-31" target="XlqtxUfu8w-gP25Wh8O6-30">
          <mxGeometry relative="1" as="geometry" />
        </mxCell>
        <mxCell id="XlqtxUfu8w-gP25Wh8O6-31" value="Authorize" style="rounded=0;whiteSpace=wrap;html=1;" vertex="1" parent="1">
          <mxGeometry x="4470" y="1782.5" width="90" height="30" as="geometry" />
        </mxCell>
        <mxCell id="XlqtxUfu8w-gP25Wh8O6-35" style="edgeStyle=orthogonalEdgeStyle;rounded=0;orthogonalLoop=1;jettySize=auto;html=1;exitX=0;exitY=0.5;exitDx=0;exitDy=0;entryX=0;entryY=0.5;entryDx=0;entryDy=0;" edge="1" parent="1" source="XlqtxUfu8w-gP25Wh8O6-33" target="XlqtxUfu8w-gP25Wh8O6-30">
          <mxGeometry relative="1" as="geometry">
            <Array as="points">
              <mxPoint x="4410" y="1847.5" />
              <mxPoint x="4410" y="1722.5" />
            </Array>
          </mxGeometry>
        </mxCell>
        <mxCell id="XlqtxUfu8w-gP25Wh8O6-33" value="IsAuthorized" style="rounded=0;whiteSpace=wrap;html=1;" vertex="1" parent="1">
          <mxGeometry x="4470" y="1832.5" width="90" height="30" as="geometry" />
        </mxCell>
        <mxCell id="XlqtxUfu8w-gP25Wh8O6-37" value="" style="endArrow=diamondThin;endFill=1;endSize=24;html=1;rounded=0;entryX=1;entryY=1;entryDx=0;entryDy=0;exitX=0;exitY=0.25;exitDx=0;exitDy=0;" edge="1" parent="1" source="XlqtxUfu8w-gP25Wh8O6-29" target="XlqtxUfu8w-gP25Wh8O6-8">
          <mxGeometry width="160" relative="1" as="geometry">
            <mxPoint x="4324.41" y="1627" as="sourcePoint" />
            <mxPoint x="4324.41" y="1493" as="targetPoint" />
          </mxGeometry>
        </mxCell>
        <mxCell id="XlqtxUfu8w-gP25Wh8O6-38" value="" style="endArrow=diamondThin;endFill=1;endSize=24;html=1;rounded=0;entryX=0.5;entryY=1;entryDx=0;entryDy=0;exitX=0.5;exitY=0;exitDx=0;exitDy=0;" edge="1" parent="1" source="XlqtxUfu8w-gP25Wh8O6-29">
          <mxGeometry width="160" relative="1" as="geometry">
            <mxPoint x="4560" y="1611.5" as="sourcePoint" />
            <mxPoint x="4500" y="1462.5" as="targetPoint" />
          </mxGeometry>
        </mxCell>
        <mxCell id="XlqtxUfu8w-gP25Wh8O6-39" value="&amp;lt;&amp;lt;interface&amp;gt;&amp;gt;&lt;br&gt;IFriendShipService" style="rounded=0;whiteSpace=wrap;html=1;" vertex="1" parent="1">
          <mxGeometry x="4695" y="1586.5" width="120" height="60" as="geometry" />
        </mxCell>
        <mxCell id="XlqtxUfu8w-gP25Wh8O6-40" value="" style="endArrow=diamondThin;endFill=1;endSize=24;html=1;rounded=0;entryX=0.5;entryY=1;entryDx=0;entryDy=0;exitX=0.5;exitY=0;exitDx=0;exitDy=0;" edge="1" parent="1" source="XlqtxUfu8w-gP25Wh8O6-39" target="XlqtxUfu8w-gP25Wh8O6-10">
          <mxGeometry width="160" relative="1" as="geometry">
            <mxPoint x="4765" y="1596.5" as="sourcePoint" />
            <mxPoint x="4765" y="1472.5" as="targetPoint" />
          </mxGeometry>
        </mxCell>
        <mxCell id="XlqtxUfu8w-gP25Wh8O6-46" style="edgeStyle=orthogonalEdgeStyle;rounded=0;orthogonalLoop=1;jettySize=auto;html=1;exitX=0.5;exitY=0;exitDx=0;exitDy=0;entryX=0.5;entryY=1;entryDx=0;entryDy=0;" edge="1" parent="1" source="XlqtxUfu8w-gP25Wh8O6-41" target="XlqtxUfu8w-gP25Wh8O6-39">
          <mxGeometry relative="1" as="geometry" />
        </mxCell>
        <mxCell id="XlqtxUfu8w-gP25Wh8O6-41" value="FriendShipService" style="rounded=0;whiteSpace=wrap;html=1;" vertex="1" parent="1">
          <mxGeometry x="4695" y="1682.5" width="120" height="40" as="geometry" />
        </mxCell>
        <mxCell id="XlqtxUfu8w-gP25Wh8O6-44" style="edgeStyle=orthogonalEdgeStyle;rounded=0;orthogonalLoop=1;jettySize=auto;html=1;exitX=0;exitY=0.5;exitDx=0;exitDy=0;entryX=0;entryY=0.75;entryDx=0;entryDy=0;" edge="1" parent="1" source="XlqtxUfu8w-gP25Wh8O6-42" target="XlqtxUfu8w-gP25Wh8O6-41">
          <mxGeometry relative="1" as="geometry" />
        </mxCell>
        <mxCell id="XlqtxUfu8w-gP25Wh8O6-42" value="AddFriendRequest" style="rounded=0;whiteSpace=wrap;html=1;" vertex="1" parent="1">
          <mxGeometry x="4710" y="1772.5" width="100" height="30" as="geometry" />
        </mxCell>
        <mxCell id="XlqtxUfu8w-gP25Wh8O6-45" style="edgeStyle=orthogonalEdgeStyle;rounded=0;orthogonalLoop=1;jettySize=auto;html=1;exitX=0;exitY=0.5;exitDx=0;exitDy=0;entryX=0;entryY=0.5;entryDx=0;entryDy=0;" edge="1" parent="1" source="XlqtxUfu8w-gP25Wh8O6-43" target="XlqtxUfu8w-gP25Wh8O6-41">
          <mxGeometry relative="1" as="geometry">
            <Array as="points">
              <mxPoint x="4655" y="1837.5" />
              <mxPoint x="4655" y="1702.5" />
            </Array>
          </mxGeometry>
        </mxCell>
        <mxCell id="XlqtxUfu8w-gP25Wh8O6-43" value="AcceptFriendResponse" style="rounded=0;whiteSpace=wrap;html=1;" vertex="1" parent="1">
          <mxGeometry x="4690" y="1822.5" width="125" height="30" as="geometry" />
        </mxCell>
        <mxCell id="XlqtxUfu8w-gP25Wh8O6-47" value="" style="endArrow=diamondThin;endFill=1;endSize=24;html=1;rounded=0;entryX=0.5;entryY=1;entryDx=0;entryDy=0;exitX=0.5;exitY=0;exitDx=0;exitDy=0;exitPerimeter=0;" edge="1" parent="1" source="XlqtxUfu8w-gP25Wh8O6-48" target="XlqtxUfu8w-gP25Wh8O6-11">
          <mxGeometry width="160" relative="1" as="geometry">
            <mxPoint x="5049.29" y="1596.5" as="sourcePoint" />
            <mxPoint x="5049.29" y="1472.5" as="targetPoint" />
          </mxGeometry>
        </mxCell>
        <mxCell id="XlqtxUfu8w-gP25Wh8O6-48" value="&amp;lt;&amp;lt;interface&amp;gt;&amp;gt;&lt;br&gt;IMessageService" style="rounded=0;whiteSpace=wrap;html=1;" vertex="1" parent="1">
          <mxGeometry x="4990" y="1586.5" width="120" height="60" as="geometry" />
        </mxCell>
        <mxCell id="XlqtxUfu8w-gP25Wh8O6-50" style="edgeStyle=orthogonalEdgeStyle;rounded=0;orthogonalLoop=1;jettySize=auto;html=1;exitX=0.5;exitY=0;exitDx=0;exitDy=0;entryX=0.5;entryY=1;entryDx=0;entryDy=0;" edge="1" parent="1" source="XlqtxUfu8w-gP25Wh8O6-49" target="XlqtxUfu8w-gP25Wh8O6-48">
          <mxGeometry relative="1" as="geometry" />
        </mxCell>
        <mxCell id="XlqtxUfu8w-gP25Wh8O6-49" value="MessageService" style="rounded=0;whiteSpace=wrap;html=1;" vertex="1" parent="1">
          <mxGeometry x="4990" y="1682.5" width="120" height="40" as="geometry" />
        </mxCell>
        <mxCell id="XlqtxUfu8w-gP25Wh8O6-56" style="edgeStyle=orthogonalEdgeStyle;rounded=0;orthogonalLoop=1;jettySize=auto;html=1;exitX=0.5;exitY=0;exitDx=0;exitDy=0;entryX=0.5;entryY=1;entryDx=0;entryDy=0;" edge="1" parent="1" source="XlqtxUfu8w-gP25Wh8O6-51" target="XlqtxUfu8w-gP25Wh8O6-49">
          <mxGeometry relative="1" as="geometry" />
        </mxCell>
        <mxCell id="XlqtxUfu8w-gP25Wh8O6-51" value="SendMessage" style="rounded=0;whiteSpace=wrap;html=1;" vertex="1" parent="1">
          <mxGeometry x="5000" y="1762.5" width="100" height="30" as="geometry" />
        </mxCell>
        <mxCell id="XlqtxUfu8w-gP25Wh8O6-55" style="edgeStyle=orthogonalEdgeStyle;rounded=0;orthogonalLoop=1;jettySize=auto;html=1;exitX=0.5;exitY=0;exitDx=0;exitDy=0;entryX=0;entryY=0.75;entryDx=0;entryDy=0;" edge="1" parent="1" source="XlqtxUfu8w-gP25Wh8O6-53" target="XlqtxUfu8w-gP25Wh8O6-49">
          <mxGeometry relative="1" as="geometry" />
        </mxCell>
        <mxCell id="XlqtxUfu8w-gP25Wh8O6-53" value="GetInbox" style="rounded=0;whiteSpace=wrap;html=1;" vertex="1" parent="1">
          <mxGeometry x="4880" y="1762.5" width="100" height="30" as="geometry" />
        </mxCell>
        <mxCell id="XlqtxUfu8w-gP25Wh8O6-57" style="edgeStyle=orthogonalEdgeStyle;rounded=0;orthogonalLoop=1;jettySize=auto;html=1;exitX=0.5;exitY=0;exitDx=0;exitDy=0;entryX=1;entryY=0.75;entryDx=0;entryDy=0;" edge="1" parent="1" source="XlqtxUfu8w-gP25Wh8O6-54" target="XlqtxUfu8w-gP25Wh8O6-49">
          <mxGeometry relative="1" as="geometry" />
        </mxCell>
        <mxCell id="XlqtxUfu8w-gP25Wh8O6-54" value="GetInbox" style="rounded=0;whiteSpace=wrap;html=1;" vertex="1" parent="1">
          <mxGeometry x="5129" y="1762.5" width="100" height="30" as="geometry" />
        </mxCell>
        <mxCell id="XlqtxUfu8w-gP25Wh8O6-58" value="Model Layer" style="shape=umlFrame;whiteSpace=wrap;html=1;pointerEvents=0;width=80;height=30;" vertex="1" parent="1">
          <mxGeometry x="3930" y="1572.5" width="1390" height="330" as="geometry" />
        </mxCell>
        <mxCell id="XlqtxUfu8w-gP25Wh8O6-71" style="edgeStyle=orthogonalEdgeStyle;rounded=0;orthogonalLoop=1;jettySize=auto;html=1;exitX=0.5;exitY=1;exitDx=0;exitDy=0;entryX=0;entryY=0.5;entryDx=0;entryDy=0;" edge="1" parent="1" source="XlqtxUfu8w-gP25Wh8O6-59" target="XlqtxUfu8w-gP25Wh8O6-60">
          <mxGeometry relative="1" as="geometry" />
        </mxCell>
        <mxCell id="XlqtxUfu8w-gP25Wh8O6-59" value="Application" style="html=1;whiteSpace=wrap;" vertex="1" parent="1">
          <mxGeometry x="3450" y="1882.5" width="110" height="50" as="geometry" />
        </mxCell>
        <mxCell id="XlqtxUfu8w-gP25Wh8O6-62" style="edgeStyle=orthogonalEdgeStyle;rounded=0;orthogonalLoop=1;jettySize=auto;html=1;exitX=0.5;exitY=0;exitDx=0;exitDy=0;entryX=0.5;entryY=1;entryDx=0;entryDy=0;" edge="1" parent="1" source="XlqtxUfu8w-gP25Wh8O6-60" target="XlqtxUfu8w-gP25Wh8O6-61">
          <mxGeometry relative="1" as="geometry" />
        </mxCell>
        <mxCell id="XlqtxUfu8w-gP25Wh8O6-60" value="RepositoryBase&amp;lt;T&amp;gt;" style="html=1;whiteSpace=wrap;" vertex="1" parent="1">
          <mxGeometry x="3660" y="1802.5" width="120" height="50" as="geometry" />
        </mxCell>
        <mxCell id="XlqtxUfu8w-gP25Wh8O6-69" style="edgeStyle=orthogonalEdgeStyle;rounded=0;orthogonalLoop=1;jettySize=auto;html=1;exitX=0.5;exitY=0;exitDx=0;exitDy=0;entryX=0.5;entryY=0;entryDx=0;entryDy=0;" edge="1" parent="1" source="XlqtxUfu8w-gP25Wh8O6-61" target="XlqtxUfu8w-gP25Wh8O6-70">
          <mxGeometry relative="1" as="geometry">
            <mxPoint x="3689.6470588235293" y="1452.5" as="targetPoint" />
          </mxGeometry>
        </mxCell>
        <mxCell id="XlqtxUfu8w-gP25Wh8O6-61" value="&amp;lt;&amp;lt;interface&amp;gt;&amp;gt;&lt;br&gt;IRepositoryBase&amp;lt;T&amp;gt;" style="html=1;whiteSpace=wrap;" vertex="1" parent="1">
          <mxGeometry x="3660" y="1622.5" width="120" height="50" as="geometry" />
        </mxCell>
        <mxCell id="XlqtxUfu8w-gP25Wh8O6-65" style="edgeStyle=orthogonalEdgeStyle;rounded=0;orthogonalLoop=1;jettySize=auto;html=1;exitX=0.5;exitY=1;exitDx=0;exitDy=0;entryX=1;entryY=0.75;entryDx=0;entryDy=0;dashed=1;dashPattern=1 1;" edge="1" parent="1">
          <mxGeometry relative="1" as="geometry">
            <mxPoint x="4270" y="1742.5" as="sourcePoint" />
            <mxPoint x="4010" y="1770.5" as="targetPoint" />
            <Array as="points">
              <mxPoint x="4270" y="1770.5" />
            </Array>
          </mxGeometry>
        </mxCell>
        <mxCell id="XlqtxUfu8w-gP25Wh8O6-66" style="edgeStyle=orthogonalEdgeStyle;rounded=0;orthogonalLoop=1;jettySize=auto;html=1;exitX=0.5;exitY=1;exitDx=0;exitDy=0;entryX=1;entryY=0.75;entryDx=0;entryDy=0;dashed=1;dashPattern=1 1;" edge="1" parent="1">
          <mxGeometry relative="1" as="geometry">
            <mxPoint x="4500" y="1742.5" as="sourcePoint" />
            <mxPoint x="4240" y="1770.5" as="targetPoint" />
            <Array as="points">
              <mxPoint x="4500" y="1770.5" />
            </Array>
          </mxGeometry>
        </mxCell>
        <mxCell id="XlqtxUfu8w-gP25Wh8O6-67" style="edgeStyle=orthogonalEdgeStyle;rounded=0;orthogonalLoop=1;jettySize=auto;html=1;exitX=0.5;exitY=1;exitDx=0;exitDy=0;entryX=1;entryY=0.75;entryDx=0;entryDy=0;dashed=1;dashPattern=1 1;" edge="1" parent="1" source="XlqtxUfu8w-gP25Wh8O6-41">
          <mxGeometry relative="1" as="geometry">
            <mxPoint x="4730" y="1742.5" as="sourcePoint" />
            <mxPoint x="4470" y="1770.5" as="targetPoint" />
            <Array as="points">
              <mxPoint x="4755" y="1770.5" />
            </Array>
          </mxGeometry>
        </mxCell>
        <mxCell id="XlqtxUfu8w-gP25Wh8O6-68" style="edgeStyle=orthogonalEdgeStyle;rounded=0;orthogonalLoop=1;jettySize=auto;html=1;exitX=0.5;exitY=1;exitDx=0;exitDy=0;entryX=1;entryY=0.75;entryDx=0;entryDy=0;dashed=1;dashPattern=1 1;" edge="1" parent="1">
          <mxGeometry relative="1" as="geometry">
            <mxPoint x="5035" y="1724.5" as="sourcePoint" />
            <mxPoint x="4750" y="1772.5" as="targetPoint" />
            <Array as="points">
              <mxPoint x="5000" y="1724.5" />
              <mxPoint x="5000" y="1752.5" />
              <mxPoint x="4750" y="1752.5" />
            </Array>
          </mxGeometry>
        </mxCell>
        <mxCell id="XlqtxUfu8w-gP25Wh8O6-70" value="Entity Base" style="html=1;whiteSpace=wrap;" vertex="1" parent="1">
          <mxGeometry x="3450" y="1276.5" width="120" height="50" as="geometry" />
        </mxCell>
        <mxCell id="XlqtxUfu8w-gP25Wh8O6-76" style="edgeStyle=orthogonalEdgeStyle;rounded=0;orthogonalLoop=1;jettySize=auto;html=1;exitX=0.5;exitY=0;exitDx=0;exitDy=0;entryX=0.5;entryY=1;entryDx=0;entryDy=0;" edge="1" parent="1" source="XlqtxUfu8w-gP25Wh8O6-72" target="XlqtxUfu8w-gP25Wh8O6-70">
          <mxGeometry relative="1" as="geometry" />
        </mxCell>
        <mxCell id="XlqtxUfu8w-gP25Wh8O6-72" value="User" style="html=1;whiteSpace=wrap;" vertex="1" parent="1">
          <mxGeometry x="3570" y="1372.5" width="110" height="50" as="geometry" />
        </mxCell>
        <mxCell id="XlqtxUfu8w-gP25Wh8O6-85" style="edgeStyle=orthogonalEdgeStyle;rounded=0;orthogonalLoop=1;jettySize=auto;html=1;exitX=0.5;exitY=1;exitDx=0;exitDy=0;entryX=0.5;entryY=0;entryDx=0;entryDy=0;" edge="1" parent="1" source="XlqtxUfu8w-gP25Wh8O6-73" target="XlqtxUfu8w-gP25Wh8O6-75">
          <mxGeometry relative="1" as="geometry" />
        </mxCell>
        <mxCell id="XlqtxUfu8w-gP25Wh8O6-91" style="edgeStyle=orthogonalEdgeStyle;rounded=0;orthogonalLoop=1;jettySize=auto;html=1;exitX=0;exitY=0.5;exitDx=0;exitDy=0;entryX=0;entryY=0.5;entryDx=0;entryDy=0;" edge="1" parent="1" source="XlqtxUfu8w-gP25Wh8O6-73" target="XlqtxUfu8w-gP25Wh8O6-59">
          <mxGeometry relative="1" as="geometry" />
        </mxCell>
        <mxCell id="XlqtxUfu8w-gP25Wh8O6-73" value="FriendShip" style="html=1;whiteSpace=wrap;" vertex="1" parent="1">
          <mxGeometry x="3290" y="1456.5" width="110" height="50" as="geometry" />
        </mxCell>
        <mxCell id="XlqtxUfu8w-gP25Wh8O6-77" style="edgeStyle=orthogonalEdgeStyle;rounded=0;orthogonalLoop=1;jettySize=auto;html=1;exitX=0.5;exitY=1;exitDx=0;exitDy=0;entryX=0.5;entryY=0;entryDx=0;entryDy=0;" edge="1" parent="1" source="XlqtxUfu8w-gP25Wh8O6-72" target="XlqtxUfu8w-gP25Wh8O6-74">
          <mxGeometry relative="1" as="geometry" />
        </mxCell>
        <mxCell id="XlqtxUfu8w-gP25Wh8O6-79" style="edgeStyle=orthogonalEdgeStyle;rounded=0;orthogonalLoop=1;jettySize=auto;html=1;exitX=0;exitY=0.5;exitDx=0;exitDy=0;entryX=1;entryY=0.5;entryDx=0;entryDy=0;" edge="1" parent="1" source="XlqtxUfu8w-gP25Wh8O6-74" target="XlqtxUfu8w-gP25Wh8O6-73">
          <mxGeometry relative="1" as="geometry" />
        </mxCell>
        <mxCell id="XlqtxUfu8w-gP25Wh8O6-80" style="edgeStyle=orthogonalEdgeStyle;rounded=0;orthogonalLoop=1;jettySize=auto;html=1;exitX=0.5;exitY=1;exitDx=0;exitDy=0;entryX=0.75;entryY=0;entryDx=0;entryDy=0;" edge="1" parent="1" source="XlqtxUfu8w-gP25Wh8O6-74" target="XlqtxUfu8w-gP25Wh8O6-59">
          <mxGeometry relative="1" as="geometry">
            <mxPoint x="3570" y="1411.5" as="targetPoint" />
            <Array as="points" />
          </mxGeometry>
        </mxCell>
        <mxCell id="XlqtxUfu8w-gP25Wh8O6-82" style="edgeStyle=orthogonalEdgeStyle;rounded=0;orthogonalLoop=1;jettySize=auto;html=1;exitX=1;exitY=0.5;exitDx=0;exitDy=0;entryX=1;entryY=0.5;entryDx=0;entryDy=0;" edge="1" parent="1" source="XlqtxUfu8w-gP25Wh8O6-74" target="XlqtxUfu8w-gP25Wh8O6-72">
          <mxGeometry relative="1" as="geometry" />
        </mxCell>
        <mxCell id="XlqtxUfu8w-gP25Wh8O6-74" value="Account" style="html=1;whiteSpace=wrap;" vertex="1" parent="1">
          <mxGeometry x="3550" y="1456.5" width="110" height="50" as="geometry" />
        </mxCell>
        <mxCell id="XlqtxUfu8w-gP25Wh8O6-83" style="edgeStyle=orthogonalEdgeStyle;rounded=0;orthogonalLoop=1;jettySize=auto;html=1;exitX=1;exitY=0.5;exitDx=0;exitDy=0;entryX=0;entryY=0.5;entryDx=0;entryDy=0;" edge="1" parent="1" source="XlqtxUfu8w-gP25Wh8O6-75" target="XlqtxUfu8w-gP25Wh8O6-78">
          <mxGeometry relative="1" as="geometry" />
        </mxCell>
        <mxCell id="XlqtxUfu8w-gP25Wh8O6-90" style="edgeStyle=orthogonalEdgeStyle;rounded=0;orthogonalLoop=1;jettySize=auto;html=1;exitX=0.5;exitY=1;exitDx=0;exitDy=0;entryX=0.25;entryY=0;entryDx=0;entryDy=0;" edge="1" parent="1" source="XlqtxUfu8w-gP25Wh8O6-75" target="XlqtxUfu8w-gP25Wh8O6-59">
          <mxGeometry relative="1" as="geometry" />
        </mxCell>
        <mxCell id="XlqtxUfu8w-gP25Wh8O6-75" value="Dialogue" style="html=1;whiteSpace=wrap;" vertex="1" parent="1">
          <mxGeometry x="3290" y="1572.5" width="110" height="50" as="geometry" />
        </mxCell>
        <mxCell id="XlqtxUfu8w-gP25Wh8O6-78" value="Message" style="html=1;whiteSpace=wrap;" vertex="1" parent="1">
          <mxGeometry x="3450" y="1572.5" width="110" height="50" as="geometry" />
        </mxCell>
        <mxCell id="XlqtxUfu8w-gP25Wh8O6-84" style="edgeStyle=orthogonalEdgeStyle;rounded=0;orthogonalLoop=1;jettySize=auto;html=1;exitX=0.5;exitY=1;exitDx=0;exitDy=0;entryX=0.5;entryY=0;entryDx=0;entryDy=0;" edge="1" parent="1" source="XlqtxUfu8w-gP25Wh8O6-78" target="XlqtxUfu8w-gP25Wh8O6-59">
          <mxGeometry relative="1" as="geometry" />
        </mxCell>
        <mxCell id="XlqtxUfu8w-gP25Wh8O6-86" value="Infrastructure layer" style="shape=umlFrame;whiteSpace=wrap;html=1;pointerEvents=0;width=80;height=30;" vertex="1" parent="1">
          <mxGeometry x="3220" y="1717.5" width="605" height="310" as="geometry" />
        </mxCell>
        <mxCell id="XlqtxUfu8w-gP25Wh8O6-89" style="edgeStyle=orthogonalEdgeStyle;rounded=0;orthogonalLoop=1;jettySize=auto;html=1;exitX=0.5;exitY=1;exitDx=0;exitDy=0;entryX=1;entryY=0.5;entryDx=0;entryDy=0;dashed=1;dashPattern=1 1;" edge="1" parent="1">
          <mxGeometry relative="1" as="geometry">
            <mxPoint x="4280" y="1741" as="sourcePoint" />
            <mxPoint x="3780" y="1636" as="targetPoint" />
            <Array as="points">
              <mxPoint x="4280" y="1769" />
              <mxPoint x="3850" y="1769" />
              <mxPoint x="3850" y="1636" />
            </Array>
          </mxGeometry>
        </mxCell>
        <mxCell id="XlqtxUfu8w-gP25Wh8O6-92" value="Domain Layer" style="shape=umlFrame;whiteSpace=wrap;html=1;pointerEvents=0;width=80;height=30;" vertex="1" parent="1">
          <mxGeometry x="3200" y="1242.5" width="645" height="440" as="geometry" />
        </mxCell>
        <mxCell id="XlqtxUfu8w-gP25Wh8O6-93" value="&lt;font face=&quot;Times New Roman&quot; style=&quot;font-size: 18px;&quot;&gt;&lt;b&gt;Zoom in&lt;/b&gt;&lt;/font&gt;" style="html=1;verticalAlign=bottom;startArrow=oval;startFill=1;endArrow=block;startSize=8;curved=0;rounded=0;exitX=1;exitY=0.5;exitDx=0;exitDy=0;strokeWidth=9;strokeColor=#FF0000;entryX=-0.003;entryY=0.382;entryDx=0;entryDy=0;entryPerimeter=0;" edge="1" parent="1" target="BY-3at06x09aHT966IcW-56">
          <mxGeometry width="60" relative="1" as="geometry">
            <mxPoint x="2870" y="1382.5" as="sourcePoint" />
            <mxPoint x="3168" y="1682.5" as="targetPoint" />
          </mxGeometry>
        </mxCell>
        <mxCell id="XlqtxUfu8w-gP25Wh8O6-94" value="Code Diagram" style="text;html=1;align=center;verticalAlign=middle;resizable=0;points=[];autosize=1;strokeColor=none;fillColor=none;fontStyle=1;fontSize=16;" vertex="1" parent="1">
          <mxGeometry x="3860" y="1980" width="130" height="30" as="geometry" />
        </mxCell>
      </root>
    </mxGraphModel>
  </diagram>
</mxfile>
